<svg preserveAspectRatio="none" width="100%" height="100%" overflow="visible" style="display: block;" viewBox="0 0 13 13" fill="none" xmlns="http://www.w3.org/2000/svg">
<g id="Icon">
<path d="M0.500002 1.56667C0.500002 1.1933 0.500002 1.00662 0.572664 0.864008C0.63658 0.738567 0.738567 0.63658 0.864008 0.572664C1.00662 0.500002 1.1933 0.500002 1.56667 0.500002H7.43333C7.8067 0.500002 7.99339 0.500002 8.136 0.572664C8.26144 0.63658 8.36342 0.738567 8.42734 0.864008C8.5 1.00662 8.5 1.1933 8.5 1.56667V2.1C8.5 2.47337 8.5 2.66005 8.42734 2.80266C8.36342 2.9281 8.26144 3.03009 8.136 3.09401C7.99339 3.16667 7.8067 3.16667 7.43333 3.16667H1.56667C1.1933 3.16667 1.00662 3.16667 0.864008 3.09401C0.738567 3.03009 0.63658 2.9281 0.572664 2.80266C0.500002 2.66005 0.500002 2.47337 0.500002 2.1V1.56667Z" stroke="var(--stroke-0, #302E2A)" stroke-linecap="round" stroke-linejoin="round"/>
<path d="M0.500002 6.23334C0.500002 5.85997 0.500002 5.67328 0.572664 5.53067C0.63658 5.40523 0.738567 5.30325 0.864008 5.23933C1.00662 5.16667 1.1933 5.16667 1.56667 5.16667H11.4333C11.8067 5.16667 11.9934 5.16667 12.136 5.23933C12.2614 5.30325 12.3634 5.40523 12.4273 5.53067C12.5 5.67328 12.5 5.85997 12.5 6.23334V6.76667C12.5 7.14004 12.5 7.32672 12.4273 7.46933C12.3634 7.59477 12.2614 7.69676 12.136 7.76067C11.9934 7.83334 11.8067 7.83334 11.4333 7.83334H1.56667C1.1933 7.83334 1.00662 7.83334 0.864008 7.76067C0.738567 7.69676 0.63658 7.59477 0.572664 7.46933C0.500002 7.32672 0.500002 7.14004 0.500002 6.76667V6.23334Z" stroke="var(--stroke-0, #302E2A)" stroke-linecap="round" stroke-linejoin="round"/>
<path d="M0.500002 10.9C0.500002 10.5266 0.500002 10.3399 0.572664 10.1973C0.63658 10.0719 0.738567 9.96991 0.864008 9.906C1.00662 9.83334 1.1933 9.83334 1.56667 9.83334H4.76667C5.14004 9.83334 5.32672 9.83334 5.46933 9.906C5.59477 9.96991 5.69676 10.0719 5.76067 10.1973C5.83334 10.3399 5.83334 10.5266 5.83334 10.9V11.4333C5.83334 11.8067 5.83334 11.9934 5.76067 12.136C5.69676 12.2614 5.59477 12.3634 5.46933 12.4273C5.32672 12.5 5.14004 12.5 4.76667 12.5H1.56667C1.1933 12.5 1.00662 12.5 0.864008 12.4273C0.738567 12.3634 0.63658 12.2614 0.572664 12.136C0.500002 11.9934 0.500002 11.8067 0.500002 11.4333V10.9Z" stroke="var(--stroke-0, #302E2A)" stroke-linecap="round" stroke-linejoin="round"/>
</g>
</svg>
