<svg preserveAspectRatio="none" width="100%" height="100%" overflow="visible" style="display: block;" viewBox="0 0 13 13" fill="none" xmlns="http://www.w3.org/2000/svg">
<g id="Icon">
<path d="M0.500002 8.23334C0.500002 7.85997 0.500002 7.67328 0.572664 7.53067C0.63658 7.40523 0.738567 7.30325 0.864008 7.23933C1.00662 7.16667 1.1933 7.16667 1.56667 7.16667H2.1C2.47337 7.16667 2.66005 7.16667 2.80266 7.23933C2.9281 7.30325 3.03009 7.40523 3.09401 7.53067C3.16667 7.67328 3.16667 7.85997 3.16667 8.23334V11.4333C3.16667 11.8067 3.16667 11.9934 3.09401 12.136C3.03009 12.2614 2.9281 12.3634 2.80266 12.4273C2.66005 12.5 2.47337 12.5 2.1 12.5H1.56667C1.1933 12.5 1.00662 12.5 0.864008 12.4273C0.738567 12.3634 0.63658 12.2614 0.572664 12.136C0.500002 11.9934 0.500002 11.8067 0.500002 11.4333V8.23334Z" stroke="var(--stroke-0, #302E2A)" stroke-linecap="round" stroke-linejoin="round"/>
<path d="M5.16667 1.56667C5.16667 1.1933 5.16667 1.00662 5.23933 0.864008C5.30325 0.738567 5.40523 0.63658 5.53067 0.572664C5.67328 0.500002 5.85997 0.500002 6.23334 0.500002H6.76667C7.14004 0.500002 7.32672 0.500002 7.46933 0.572664C7.59477 0.63658 7.69676 0.738567 7.76067 0.864008C7.83334 1.00662 7.83334 1.1933 7.83334 1.56667V11.4333C7.83334 11.8067 7.83334 11.9934 7.76067 12.136C7.69676 12.2614 7.59477 12.3634 7.46933 12.4273C7.32672 12.5 7.14004 12.5 6.76667 12.5H6.23334C5.85997 12.5 5.67328 12.5 5.53067 12.4273C5.40523 12.3634 5.30325 12.2614 5.23933 12.136C5.16667 11.9934 5.16667 11.8067 5.16667 11.4333V1.56667Z" stroke="var(--stroke-0, #302E2A)" stroke-linecap="round" stroke-linejoin="round"/>
<path d="M9.83334 5.56667C9.83334 5.1933 9.83334 5.00662 9.906 4.86401C9.96991 4.73857 10.0719 4.63658 10.1973 4.57266C10.3399 4.5 10.5266 4.5 10.9 4.5H11.4333C11.8067 4.5 11.9934 4.5 12.136 4.57266C12.2614 4.63658 12.3634 4.73857 12.4273 4.86401C12.5 5.00662 12.5 5.1933 12.5 5.56667V11.4333C12.5 11.8067 12.5 11.9934 12.4273 12.136C12.3634 12.2614 12.2614 12.3634 12.136 12.4273C11.9934 12.5 11.8067 12.5 11.4333 12.5H10.9C10.5266 12.5 10.3399 12.5 10.1973 12.4273C10.0719 12.3634 9.96991 12.2614 9.906 12.136C9.83334 11.9934 9.83334 11.8067 9.83334 11.4333V5.56667Z" stroke="var(--stroke-0, #302E2A)" stroke-linecap="round" stroke-linejoin="round"/>
</g>
</svg>
